<svg viewBox="0 0 100 110" xmlns="http://www.w3.org/2000/svg">
  <path d="M50 4 L88 16 L88 52 C88 76 71 92 50 100 C29 92 12 76 12 52 L12 16 Z" fill="#1c6cbf"/>
  <path d="M50 11 L82 22 L82 52 C82 72 67 86 50 93 C33 86 18 72 18 52 L18 22 Z" fill="#2ea043"/>
  <!-- Lock shackle -->
  <path d="M43 40 L43 33 C43 24 57 24 57 33 L57 40"
        fill="none" stroke="white" stroke-width="4" stroke-linecap="round"/>
  <!-- Lock body -->
  <rect x="38" y="39" width="24" height="17" rx="3" fill="white"/>
  <!-- Keyhole -->
  <circle cx="50" cy="46" r="3" fill="#2ea043"/>
  <rect x="48" y="46" width="4" height="5" rx="1" fill="#2ea043"/>
  <!-- BSM text -->
  <text x="50" y="70" font-family="monospace" font-size="18" font-weight="bold"
        fill="white" text-anchor="middle" dominant-baseline="central" letter-spacing="1">BSM</text>
</svg>
